HIERARCHY
ROOT Hips
{
	OFFSET 0.000000 0.000000 0.000000
	CHANNELS 6 Xposition Yposition Zposition Zrotation Yrotation Xrotation 
	JOINT LHipJoint
	{
		OFFSET 0.000000 0.000000 0.000000
		CHANNELS 3 Zrotation Yrotation Xrotation
		JOINT LeftUpLeg
		{
			OFFSET 1.363060 -1.794630 0.839290
			CHANNELS 3 Zrotation Yrotation Xrotation
			JOINT LeftLeg
			{
				OFFSET 2.448110 -6.726130 0.000000
				CHANNELS 3 Zrotation Yrotation Xrotation
				JOINT LeftFoot
				{
					OFFSET 2.562200 -7.039590 0.000000
					CHANNELS 3 Zrotation Yrotation Xrotation
					JOINT LeftToeBase
					{
						OFFSET 0.157640 -0.433110 2.322550
						CHANNELS 3 Zrotation Yrotation Xrotation
						End Site
						{
							OFFSET 0.000000 0.000000 0.000000
						}
					}
				}
			}
		}
	}
	JOINT RHipJoint
	{
		OFFSET 0.000000 0.000000 0.000000
		CHANNELS 3 Zrotation Yrotation Xrotation
		JOINT RightUpLeg
		{
			OFFSET -1.305520 -1.794630 0.839290
			CHANNELS 3 Zrotation Yrotation Xrotation
			JOINT RightLeg
			{
				OFFSET -2.542530 -6.985550 0.000000
				CHANNELS 3 Zrotation Yrotation Xrotation
				JOINT RightFoot
				{
					OFFSET -2.568260 -7.056230 0.000000
					CHANNELS 3 Zrotation Yrotation Xrotation
					JOINT RightToeBase
					{
						OFFSET -0.164730 -0.452590 2.363150
						CHANNELS 3 Zrotation Yrotation Xrotation
						End Site
						{
							OFFSET 0.000000 0.000000 0.000000
						}
					}
				}
			}
		}
	}
	JOINT LowerBack
	{
		OFFSET 0.000000 0.000000 0.000000
		CHANNELS 3 Zrotation Yrotation Xrotation
		JOINT Spine
		{
			OFFSET 0.028270 2.035590 -0.193380
			CHANNELS 3 Zrotation Yrotation Xrotation
			JOINT Spine1
			{
				OFFSET 0.056720 2.048850 -0.042750
				CHANNELS 3 Zrotation Yrotation Xrotation
				JOINT Neck
				{
					OFFSET 0.000000 0.000000 0.000000
					CHANNELS 3 Zrotation Yrotation Xrotation
					JOINT Neck1
					{
						OFFSET -0.054170 1.746240 0.172020
						CHANNELS 3 Zrotation Yrotation Xrotation
						JOINT Head
						{
							OFFSET 0.104070 1.761360 -0.123970
							CHANNELS 3 Zrotation Yrotation Xrotation
							End Site
							{
								OFFSET 0.000000 0.000000 0.000000
							}
						}
					}
				}
				JOINT LeftShoulder
				{
					OFFSET 0.000000 0.000000 0.000000
					CHANNELS 3 Zrotation Yrotation Xrotation
					JOINT LeftArm
					{
						OFFSET 3.362410 1.200890 -0.311210
						CHANNELS 3 Zrotation Yrotation Xrotation
						JOINT LeftForeArm
						{
							OFFSET 4.983000 -0.000000 -0.000000
							CHANNELS 3 Zrotation Yrotation Xrotation
							JOINT LeftHand
							{
								OFFSET 3.483560 -0.000000 -0.000000
								CHANNELS 3 Zrotation Yrotation Xrotation
								JOINT LeftFingerBase
								{
									OFFSET 0.000000 0.000000 0.000000
									CHANNELS 3 Zrotation Yrotation Xrotation
									JOINT LeftHandIndex1
									{
										OFFSET 0.715260 -0.000000 -0.000000
										CHANNELS 3 Zrotation Yrotation Xrotation
										End Site
										{
											OFFSET 0.000000 0.000000 0.000000
										}
									}
								}
								JOINT LThumb
								{
									OFFSET 0.000000 0.000000 0.000000
									CHANNELS 3 Zrotation Yrotation Xrotation
									End Site
									{
										OFFSET 0.000000 0.000000 0.000000
									}
								}
							}
						}
					}
				}
				JOINT RightShoulder
				{
					OFFSET 0.000000 0.000000 0.000000
					CHANNELS 3 Zrotation Yrotation Xrotation
					JOINT RightArm
					{
						OFFSET -3.136600 1.374050 -0.404650
						CHANNELS 3 Zrotation Yrotation Xrotation
						JOINT RightForeArm
						{
							OFFSET -5.241900 -0.000000 -0.000000
							CHANNELS 3 Zrotation Yrotation Xrotation
							JOINT RightHand
							{
								OFFSET -3.444170 -0.000000 -0.000000
								CHANNELS 3 Zrotation Yrotation Xrotation
								JOINT RightFingerBase
								{
									OFFSET 0.000000 0.000000 0.000000
									CHANNELS 3 Zrotation Yrotation Xrotation
									JOINT RightHandIndex1
									{
										OFFSET -0.622530 -0.000000 -0.000000
										CHANNELS 3 Zrotation Yrotation Xrotation
										End Site
										{
											OFFSET 0.000000 0.000000 0.000000
										}
									}
								}
								JOINT RThumb
								{
									OFFSET 0.000000 0.000000 0.000000
									CHANNELS 3 Zrotation Yrotation Xrotation
									End Site
									{
										OFFSET 0.000000 0.000000 0.000000
									}
								}
							}
						}
					}
				}
			}
		}
	}
}
MOTION
Frames: 11
Frame Time: 0.008333
0.871563 17.039291 1.494146 3.710332 26.165032 19.276363 -11.094792 2.556843 -4.896955 -13.929391 19.963243 -12.203160 -2.577442 0.838976 22.506210 2.031882 13.082695 -7.267940 0.038700 -0.000000 -53.096800 8.383139 0.867457 1.104283 10.075246 -1.130246 -37.706964 2.667689 1.344689 4.070104 -2.560181 -11.029959 -3.608566 -2.098200 0.000000 -4.269700 5.481481 -3.174892 8.014647 0.190837 -3.088210 -0.950809 -7.180732 -3.100478 1.583168 9.371948 -0.292446 4.106231 -5.049729 -0.411313 2.732548 0.000000 0.000000 0.000000 -4.601461 -6.818237 1.987731 -51.187072 -25.257590 17.929873 -3.216208 -40.625672 -0.002623 4.436915 -2.727650 -0.115045 -0.164441 0.167586 0.000000 0.000000 0.000000 0.000000 0.000000 0.000000 0.000000 20.510458 -5.438310 -0.524726 64.993412 3.933833 -8.367890 3.256013 20.535134 0.007333 2.596330 6.487388 0.145052 0.051150 -0.027783 -0.000000 0.000000 0.000000 0.000000 0.000000 0.000000 0.000000 
0.908110 17.015466 1.613466 3.863816 26.237970 19.307146 -11.168827 2.608450 -4.777278 -13.711622 19.606221 -11.988317 -2.510791 0.901820 23.125580 2.051630 13.274484 -7.099418 0.081600 -0.000001 -54.009500 8.395536 0.813637 1.052082 10.037015 -1.341990 -37.263720 2.613201 1.305704 4.023715 -2.567992 -11.430724 -2.568119 -2.399100 0.000001 -5.129100 5.656891 -3.220248 7.905511 0.237466 -3.143671 -0.991690 -7.148000 -3.159594 1.563950 9.427487 -0.466257 4.002928 -5.059836 -0.411805 2.711791 0.000000 0.000000 0.000000 -4.869773 -6.717206 1.927994 -52.343555 -24.613547 18.813839 -3.211402 -40.988089 -0.001727 4.150625 -2.738802 -0.108126 -0.161954 0.166010 0.000000 0.000000 0.000000 0.000000 0.000000 0.000000 0.000000 20.605337 -5.631731 -0.524556 64.915057 3.604231 -8.763317 3.290360 20.167811 0.007441 2.560020 6.475492 0.142648 0.052845 -0.026677 -0.000000 0.000000 0.000000 0.000000 0.000000 0.000000 0.000000 
0.946303 16.994453 1.733788 3.964671 26.265811 19.362716 -11.258215 2.649616 -4.645123 -13.479607 19.211728 -11.886605 -2.433969 0.969476 23.820587 2.080026 13.532063 -6.875560 0.141800 -0.000000 -54.962200 8.385013 0.745677 1.023492 10.041318 -1.454134 -36.954747 2.567524 1.254080 4.101807 -2.571430 -11.812615 -1.483601 -2.720300 0.000000 -6.092200 5.882837 -3.248348 7.763872 0.293426 -3.184772 -1.036720 -7.118884 -3.204473 1.556074 9.463234 -0.633240 3.889552 -5.070040 -0.412217 2.688154 0.000000 0.000000 0.000000 -5.230089 -6.556909 1.874975 -53.424262 -24.000534 19.663930 -3.207162 -41.312365 -0.000806 3.841055 -2.748234 -0.100411 -0.159248 0.164551 0.000000 0.000000 0.000000 0.000000 0.000000 0.000000 0.000000 20.684323 -5.809532 -0.527007 64.808330 3.331356 -9.162189 3.327450 19.764457 0.007602 2.493826 6.482859 0.138847 0.054860 -0.025808 -0.000000 0.000000 0.000000 0.000000 0.000000 0.000000 0.000000 
0.986774 16.977103 1.854018 3.986275 26.236823 19.420929 -11.372079 2.677065 -4.513034 -13.198564 18.839285 -11.908567 -2.347694 1.044313 24.607918 2.111048 13.823491 -6.575137 0.224000 0.000000 -56.043500 8.342059 0.661240 1.018513 10.112716 -1.441260 -36.768184 2.533208 1.191497 4.328672 -2.576061 -12.176202 -0.439588 -3.041299 0.000000 -7.079600 6.179330 -3.254299 7.604149 0.363103 -3.206060 -1.087131 -7.090907 -3.230397 1.544421 9.477496 -0.754536 3.785766 -5.078040 -0.412515 2.666935 0.000000 0.000000 0.000000 -5.661944 -6.381526 1.827313 -54.464542 -23.359527 20.423242 -3.200521 -41.601802 0.000135 3.512792 -2.768119 -0.092599 -0.156036 0.163339 0.000000 0.000000 0.000000 0.000000 0.000000 0.000000 0.000000 20.730606 -5.931598 -0.526660 64.673880 3.074865 -9.581745 3.366295 19.343701 0.007817 2.396793 6.509817 0.133744 0.057141 -0.025250 -0.000000 0.000000 0.000000 0.000000 0.000000 0.000000 0.000000 
1.028630 16.963962 1.973670 3.949902 26.137339 19.485946 -11.501173 2.693676 -4.387713 -12.898577 18.500816 -12.042952 -2.252264 1.125578 25.476488 2.145772 14.158954 -6.171188 0.337200 0.000001 -57.257400 8.273432 0.567454 1.031009 10.234289 -1.324296 -36.721313 2.509482 1.113263 4.761525 -2.580084 -12.473924 0.449998 -3.321800 0.000000 -7.945299 6.518875 -3.241506 7.439484 0.440878 -3.209601 -1.137072 -7.063491 -3.238748 1.538453 9.470618 -0.838211 3.682654 -5.082653 -0.412540 2.645170 0.000000 0.000000 0.000000 -6.159194 -6.149617 1.784036 -55.453317 -22.748245 21.110737 -3.193907 -41.831374 0.001059 3.183386 -2.796304 -0.084889 -0.152666 0.162328 0.000000 0.000000 0.000000 0.000000 0.000000 0.000000 0.000000 20.744229 -6.003875 -0.525869 64.526235 2.880630 -10.032589 3.407194 18.867556 0.008080 2.274932 6.547902 0.127345 0.059698 -0.024966 -0.000000 0.000000 0.000000 0.000000 0.000000 0.000000 0.000000 
1.072080 16.955502 2.092069 3.837925 25.964541 19.537855 -11.651671 2.697545 -4.280694 -12.548232 18.252128 -12.295172 -2.149185 1.215975 26.443215 2.177482 14.498830 -5.640411 0.486500 -0.000000 -58.673600 8.174276 0.463309 1.057830 10.426298 -1.097371 -36.780649 2.498124 1.023452 5.390106 -2.586440 -12.704865 1.120166 -3.541700 -0.000000 -8.602800 6.911933 -3.208806 7.284626 0.529338 -3.193510 -1.185869 -7.033944 -3.228032 1.529109 9.443478 -0.863798 3.592570 -5.081797 -0.412225 2.626147 0.000000 0.000000 0.000000 -6.696364 -5.889539 1.741962 -56.422598 -22.130638 21.686713 -3.184843 -41.997864 0.001941 2.863599 -2.838034 -0.077584 -0.148977 0.161573 0.000000 0.000000 0.000000 0.000000 0.000000 0.000000 0.000000 20.712952 -6.006391 -0.521502 64.369431 2.729074 -10.510735 3.449418 18.344230 0.008384 2.128105 6.593817 0.119645 0.062492 -0.024953 -0.000000 0.000000 0.000000 0.000000 0.000000 0.000000 0.000000 
1.116439 16.951839 2.208793 3.656087 25.719070 19.566441 -11.820509 2.689389 -4.200225 -12.144305 18.122311 -12.653922 -2.039580 1.316607 27.508927 2.203006 14.822592 -4.956926 0.678601 0.000000 -60.319000 8.048581 0.352129 1.091477 10.688749 -0.781065 -36.915987 2.498997 0.923665 6.203993 -2.594231 -12.851903 1.516628 -3.679000 0.000000 -8.973701 7.345038 -3.158890 7.154613 0.626052 -3.159208 -1.231067 -6.999999 -3.199671 1.512533 9.401030 -0.826997 3.520930 -5.074034 -0.411515 2.611203 0.000000 0.000000 0.000000 -7.242456 -5.619125 1.697589 -57.392674 -21.486109 22.121129 -3.171377 -42.098949 0.002740 2.563931 -2.892243 -0.070884 -0.144867 0.161042 0.000000 0.000000 0.000000 0.000000 0.000000 0.000000 0.000000 20.633754 -5.936873 -0.512060 64.213466 2.624135 -11.008249 3.492216 17.766782 0.008716 1.959966 6.640810 0.110547 0.065475 -0.025164 -0.000000 0.000000 0.000000 0.000000 0.000000 0.000000 0.000000 
1.160142 16.952869 2.323645 3.434832 25.402159 19.569853 -11.994857 2.672367 -4.154923 -11.713608 18.117035 -13.085111 -1.924540 1.427212 28.656638 2.222445 15.126851 -4.093829 0.921000 0.000000 -62.146100 7.910474 0.242890 1.122303 10.987080 -0.404792 -37.084382 2.506137 0.815399 7.170755 -2.602261 -12.904415 1.616241 -3.720901 0.000000 -9.048800 7.778890 -3.098904 7.069190 0.723021 -3.111493 -1.266204 -6.961513 -3.157795 1.495257 9.354626 -0.732316 3.462085 -5.058114 -0.410286 2.598355 0.000000 0.000000 0.000000 -7.770513 -5.307158 1.649930 -58.364132 -20.864608 22.437325 -3.156428 -42.109559 0.003435 2.298739 -2.955631 -0.065090 -0.140681 0.160635 0.000000 0.000000 0.000000 0.000000 0.000000 0.000000 0.000000 20.516231 -5.799054 -0.500331 64.077765 2.587783 -11.548090 3.534514 17.123724 0.009042 1.788673 6.673175 0.100846 0.068505 -0.025505 0.000000 0.000000 0.000000 0.000000 0.000000 0.000000 0.000000 
1.202065 16.958290 2.436557 3.189345 25.023806 19.543752 -12.168056 2.647576 -4.149478 -11.261201 18.241902 -13.570656 -1.805383 1.548141 29.882786 2.234372 15.393074 -3.036286 1.215500 -0.000000 -64.086100 7.768606 0.140399 1.145451 11.303587 0.013492 -37.232839 2.516041 0.705297 8.221694 -2.611875 -12.878249 1.434806 -3.672899 0.000000 -8.837999 8.191881 -3.034023 7.037884 0.816052 -3.054166 -1.289301 -6.918020 -3.106067 1.476263 9.315931 -0.575150 3.418923 -5.032994 -0.408508 2.588360 0.000000 0.000000 0.000000 -8.251430 -4.956541 1.598074 -59.347296 -20.269405 22.633302 -3.140456 -42.021963 0.003997 2.075929 -3.023186 -0.060200 -0.136507 0.160263 0.000000 0.000000 0.000000 0.000000 0.000000 0.000000 0.000000 20.366913 -5.589564 -0.487048 63.974869 2.611305 -12.145259 3.575150 16.427012 0.009326 1.630186 6.676003 0.091446 0.071434 -0.025883 0.000000 0.000000 0.000000 0.000000 0.000000 0.000000 0.000000 
1.242075 16.967676 2.547454 2.910759 24.605899 19.474382 -12.342513 2.613200 -4.182966 -10.757869 18.502832 -14.104220 -1.682485 1.680277 31.193338 2.235952 15.588648 -1.769826 1.559500 -0.000001 -66.156200 7.622976 0.043277 1.154887 11.657884 0.448600 -37.306817 2.532229 0.601398 9.280934 -2.622787 -12.791633 1.013019 -3.549600 -0.000000 -8.359400 8.589224 -2.965766 7.063923 0.906695 -2.988424 -1.302974 -6.866781 -3.046232 1.442669 9.292137 -0.371548 3.403191 -4.999533 -0.406369 2.584909 0.000000 0.000000 0.000000 -8.642801 -4.658667 1.536303 -60.374307 -19.590036 22.622193 -3.115086 -41.877883 0.004381 1.890142 -3.088500 -0.056020 -0.131609 0.159835 0.000000 0.000000 0.000000 0.000000 0.000000 0.000000 0.000000 20.188768 -5.334736 -0.466941 63.895880 2.690116 -12.707989 3.613016 15.686846 0.009567 1.464953 6.654078 0.081345 0.074313 -0.026217 0.000000 0.000000 0.000000 0.000000 0.000000 0.000000 0.000000 
1.278127 16.980383 2.656709 2.647365 24.158916 19.381363 -12.499344 2.573921 -4.252496 -10.258328 18.852393 -14.656182 -1.557078 1.820446 32.565421 2.232682 15.728826 -0.302935 1.948100 0.000000 -68.086400 7.493124 -0.037543 1.149672 11.987308 0.877235 -37.275154 2.545841 0.509363 10.274889 -2.636033 -12.663880 0.403812 -3.368600 0.000000 -7.682900 8.920798 -2.903924 7.146386 0.984389 -2.922879 -1.302446 -6.811861 -2.985802 1.411958 9.301272 -0.116185 3.400149 -4.956454 -0.403697 2.583649 0.000000 0.000000 0.000000 -8.946858 -4.313986 1.471417 -61.408567 -18.967317 22.519241 -3.091436 -41.628093 0.004611 1.753513 -3.143509 -0.052943 -0.127047 0.159214 0.000000 0.000000 0.000000 0.000000 0.000000 0.000000 0.000000 20.002734 -5.021658 -0.449360 63.868311 2.819530 -13.341820 3.647222 14.926579 0.009697 1.342057 6.575835 0.073144 0.076819 -0.026369 -0.000000 0.000000 0.000000 0.000000 0.000000 0.000000 0.000000 
